<?xml version="1.0" encoding="UTF-8"?>
<svg id="Layer_2" data-name="Layer 2" xmlns="http://www.w3.org/2000/svg" viewBox="0 0 1168.63 788.36">
  <defs>
    <style>
      .cls-1 {
        fill: #3d9df9;
      }

      .cls-1, .cls-2 {
        stroke-width: 0px;
      }

      .cls-2 {
        fill: #fdfdfd;
      }
    </style>
  </defs>
  <g id="Layer_1-2" data-name="Layer 1">
    <path class="cls-1" d="m414.33,0h167.65l83.51.64,8.29,1.91,15.3,3.19,17.21,5.74,12.75,5.74,17.21,10.2,10.2,7.65,3.82,2.55,3.19,3.82,5.1,4.46,10.2,10.2,5.74,7.01,7.65,10.84,7.65,13.39,6.37,13.39,2.55,6.37,4.46,14.66,2.55,12.75,1.27,8.92.64,8.92,1.27,47.81,3.19-.64,12.11-7.01,7.01-4.46,12.11-7.01,17.21-9.56,13.39-7.65,7.01-3.19,4.46-1.27,6.37.64,7.65,3.82,5.74,5.74,4.46,7.65,1.27,8.29-.64,83.51v148.53l-4.46,8.92-6.37,6.37-4.46,2.55-2.55.64h-10.84l-10.84-6.37-12.11-7.01-10.2-5.74-12.11-7.01-3.19-.64-2.55-2.55-14.66-8.29-7.01-3.82-.64,40.16.64,1.27-.64,3.19-1.27,15.3-2.55,15.3-4.46,15.94-5.74,14.02-6.37,12.75-5.74,9.56-8.29,10.84-4.46,5.74-8.92,9.56-9.56,8.92-4.46,3.82-10.84,7.65-9.56,5.74-10.84,5.74-12.11,5.1-12.11,3.82-18.49,3.82-5.74.64-1.27,3.82h-.64v-3.19h-295.14l-19.12-1.27-14.66-2.55-3.82-.64-1.27.64v-1.27l-7.01-1.91-15.3-6.37-14.66-7.65-7.01-4.46-12.11-8.92-9.56-8.29-8.29-8.29-4.46-5.1-3.82-4.46-1.91-1.91-6.37-10.2-2.55-3.19-10.2-20.4-4.46-10.84-4.46-15.3-2.55-14.02-1.27-11.47-.64-12.11v-82.23l.64-83.51h-5.1v-.64h5.1l-.64-82.23-1.91-1.27,1.91-.64.64-29.96,1.27-16.57,3.19-16.57,5.1-15.94,3.19-7.65,5.1-10.2,6.37-11.47,5.1-7.65,3.19-5.74,5.1-4.46,1.27-1.91h1.27l1.27-2.55,10.2-10.2,5.1-4.46,10.2-8.29,8.92-5.74,10.84-6.37,12.75-5.74,15.94-5.74,22.95-4.46,12.75-1.27,48.45-.64Z"/>
    <path class="cls-2" d="m340.2,168.29h360.16l7.65,1.27,8.92,4.46,4.46,3.82,5.1,8.92,1.27,7.01v149.16l-.64,8.29-2.55,7.01-4.46,6.37-6.37,5.74-7.01,3.19-5.1-.64-35.06-7.65-34.42-6.37-42.71-7.65-35.06-5.1-12.11-1.27h-33.15l-18.49,1.27-26.77,3.82-44.62,7.65-44.62,8.29-31.87,7.01h-7.01l-7.65-3.82-4.46-3.82-4.46-7.01-1.91-5.1-.64-3.82-.64-10.84v-145.98l1.27-5.74,4.46-7.65,5.74-5.74,8.92-4.46,3.82-.64Z"/>
    <path class="cls-1" d="m642.35,232.03l3.82.64,5.1,4.46,3.19,6.37-.64,5.74-5.1,4.46-8.29,3.82-15.94,4.46h-1.27l.64,1.27,19.12,4.46,6.37,3.19,4.46,5.74.64,4.46-1.91,4.46-3.82,4.46-3.19,1.91h-4.46l-22.95-5.74-40.8-10.84-7.65-3.19-3.19-2.55-1.91-3.82v-7.01l2.55-3.82,4.46-3.19,11.47-3.82,36.97-9.56,22.31-6.37Z"/>
    <path class="cls-1" d="m373.34,232.03l4.46.64,37.61,10.2,25.5,7.01,7.65,3.19,3.19,3.19,1.91,3.19.64,5.1-2.55,4.46-6.37,4.46-9.56,3.19-50.36,13.39-7.65,1.91h-5.1l-5.74-3.82-2.55-4.46v-7.01l3.19-5.1,7.65-3.82,12.11-3.19,6.37-1.27v-1.27l-9.56-2.55-10.2-3.19-5.1-2.55-3.19-3.19-1.91-4.46,1.27-6.37,3.19-4.46,5.1-3.19Z"/>
    <path class="cls-2" d="m1131.02,717.45h35.7l1.91,1.27-.64,19.12-.64.64h-35.7l-.64-5.74v-15.3Z"/>
    <g>
      <path class="cls-1" d="m6.12,784.87c-3.38,0-6.12-2.74-6.12-6.12v-96.09c0-12.67,3.84-23.02,11.53-31.06,7.69-8.03,17.66-12.05,29.91-12.05s21.64,4.52,29.05,13.55c2.41,2.93,6.88,2.92,9.35.04,3.35-3.91,6.86-6.9,10.52-8.96,5.47-3.08,12.22-4.62,20.25-4.62,12.74,0,22.5,4.02,29.29,12.05,6.79,8.03,10.18,19.6,10.18,34.69v92.45c0,3.38-2.74,6.12-6.12,6.12h-29.94c-3.38,0-6.12-2.74-6.12-6.12v-86.12c0-4.57-.36-7.6-1.09-9.09-.73-1.49-2.2-2.23-4.41-2.23-4.15,0-6.23,3.53-6.23,10.59v86.84c0,3.38-2.74,6.12-6.12,6.12h-29.94c-3.38,0-6.12-2.74-6.12-6.12v-86.12c0-4.5-.38-7.51-1.14-9.04-.76-1.52-2.25-2.29-4.47-2.29-4.15,0-6.23,3.77-6.23,11.32v86.12c0,3.38-2.74,6.12-6.12,6.12H6.12Z"/>
      <path class="cls-1" d="m276.87,639.56c20.08,0,37.3,7.31,51.67,21.92,14.37,14.61,21.55,32.09,21.55,52.45s-7.24,38.29-21.71,52.76c-12.15,12.15-26.49,19.19-43.02,21.15-26.15,3.09-52.31-7.63-68.67-28.26-10.36-13.07-15.55-28.28-15.55-45.65,0-20.77,7.32-38.36,21.97-52.76,14.65-14.4,32.56-21.6,53.75-21.6Zm-1.25,41.75c-8.66,0-16.03,3.19-22.12,9.56-6.09,6.37-9.14,14.06-9.14,23.06s3.06,16.69,9.19,23.06c6.13,6.37,13.48,9.56,22.07,9.56s16.12-3.17,22.18-9.5c6.06-6.34,9.09-14.04,9.09-23.11s-3.03-16.77-9.09-23.11c-6.06-6.34-13.45-9.5-22.18-9.5Z"/>
      <path class="cls-1" d="m471.17,639.56c20.08,0,37.3,7.31,51.67,21.92,14.37,14.61,21.55,32.09,21.55,52.45s-7.24,38.29-21.71,52.76c-12.15,12.15-26.48,19.19-43.02,21.15-26.15,3.09-52.31-7.63-68.67-28.26-10.37-13.07-15.55-28.29-15.55-45.65,0-20.77,7.32-38.36,21.97-52.76,14.65-14.4,32.56-21.6,53.75-21.6Zm-1.25,41.75c-8.66,0-16.03,3.19-22.12,9.56-6.09,6.37-9.14,14.06-9.14,23.06s3.06,16.69,9.19,23.06c6.13,6.37,13.48,9.56,22.07,9.56s16.12-3.17,22.18-9.5c6.06-6.34,9.09-14.04,9.09-23.11s-3.03-16.77-9.09-23.11c-6.06-6.34-13.45-9.5-22.18-9.5Z"/>
      <path class="cls-1" d="m665.48,639.56c20.08,0,37.3,7.31,51.67,21.92,14.37,14.61,21.55,32.09,21.55,52.45s-7.24,38.29-21.71,52.76c-12.15,12.15-26.48,19.19-43.02,21.15-26.15,3.09-52.31-7.63-68.67-28.26-10.37-13.07-15.55-28.29-15.55-45.65,0-20.77,7.32-38.36,21.97-52.76,14.65-14.4,32.56-21.6,53.75-21.6Zm-1.25,41.75c-8.66,0-16.03,3.19-22.12,9.56-6.09,6.37-9.14,14.06-9.14,23.06s3.06,16.69,9.19,23.06c6.13,6.37,13.48,9.56,22.07,9.56s16.12-3.17,22.18-9.5c6.06-6.34,9.09-14.04,9.09-23.11s-3.03-16.77-9.09-23.11c-6.06-6.34-13.45-9.5-22.18-9.5Z"/>
      <path class="cls-1" d="m890.98,651.54l-52.64,127.67c-2.08,5.05-9.24,5.04-11.32-.01l-52.29-127.67c-1.65-4.02,1.31-8.44,5.66-8.44h35.12c2.72,0,5.11,1.79,5.87,4.39l6.11,20.83c1.69,5.78,9.83,5.89,11.69.16l6.85-21.16c.82-2.52,3.17-4.23,5.82-4.23h33.46c4.36,0,7.32,4.42,5.66,8.45Z"/>
      <path class="cls-1" d="m979.92,649.21v129.54c0,3.38-2.74,6.12-6.12,6.12h-29.94c-3.38,0-6.12-2.74-6.12-6.12v-129.54c0-3.38,2.74-6.12,6.12-6.12h29.94c3.38,0,6.12,2.74,6.12,6.12Z"/>
      <path class="cls-1" d="m1117.92,704.36v19.34c0,3.38-2.74,6.12-6.12,6.12h-21.41c-3.74,0-6.39.55-7.95,1.66-1.56,1.11-2.34,2.98-2.34,5.61,0,2.98.8,4.93,2.39,5.87,1.59.93,4.85,1.4,9.76,1.4h22.24c3.38,0,6.12,2.74,6.12,6.12v28.27c0,3.38-2.74,6.12-6.12,6.12h-27.02c-15.58,0-27.49-3.72-35.73-11.17-8.24-7.44-12.36-18.19-12.36-32.25v-55.57c0-13.57,3.89-24.1,11.68-31.58s18.75-11.22,32.87-11.22h30.55c3.38,0,6.12,2.74,6.12,6.12v28.48c0,3.38-2.74,6.12-6.12,6.12h-20.78c-7.27,0-10.91,2.35-10.91,7.06,0,2.77.87,4.69,2.6,5.76,1.73,1.07,4.81,1.61,9.24,1.61h17.15c3.38,0,6.12,2.74,6.12,6.12Z"/>
    </g>
  </g>
</svg>