<?xml version="1.0" encoding="utf-8"?>
<!-- Generator: Adobe Illustrator 27.8.1, SVG Export Plug-In . SVG Version: 6.00 Build 0)  -->
<svg version="1.1" id="Layer_1" xmlns="http://www.w3.org/2000/svg" xmlns:xlink="http://www.w3.org/1999/xlink" x="0px" y="0px"
	 viewBox="0 0 1280 1280" style="enable-background:new 0 0 1280 1280;" xml:space="preserve">
<style type="text/css">
	.st0{fill:#3D9DF9;}
	.st1{fill:#FDFDFD;}
</style>
<path class="st0" d="M504.7,259.1h167.6l83.5,0.6l8.3,1.9l15.3,3.2l17.2,5.7l12.7,5.7l17.2,10.2l10.2,7.6l3.8,2.5l3.2,3.8l5.1,4.5
	l10.2,10.2l5.7,7l7.6,10.8l7.6,13.4l6.4,13.4l2.5,6.4l4.5,14.7l2.5,12.7l1.3,8.9l0.6,8.9l1.3,47.8l3.2-0.6l12.1-7l7-4.5l12.1-7
	l17.2-9.6l13.4-7.6l7-3.2l4.5-1.3l6.4,0.6l7.6,3.8l5.7,5.7l4.5,7.6l1.3,8.3l-0.6,83.5v148.5l-4.5,8.9l-6.4,6.4l-4.5,2.5l-2.5,0.6
	h-10.8l-10.8-6.4l-12.1-7l-10.2-5.7l-12.1-7l-3.2-0.6l-2.5-2.5l-14.7-8.3l-7-3.8l-0.6,40.2l0.6,1.3l-0.6,3.2l-1.3,15.3l-2.5,15.3
	l-4.5,15.9l-5.7,14l-6.4,12.7l-5.7,9.6l-8.3,10.8l-4.5,5.7l-8.9,9.6l-9.6,8.9l-4.5,3.8l-10.8,7.6l-9.6,5.7l-10.8,5.7l-12.1,5.1
	l-12.1,3.8l-18.5,3.8l-5.7,0.6l-1.3,3.8h-0.6v-3.2H460l-19.1-1.3l-14.7-2.5l-3.8-0.6l-1.3,0.6v-1.3l-7-1.9l-15.3-6.4l-14.7-7.6
	l-7-4.5l-12.1-8.9l-9.6-8.3l-8.3-8.3l-4.5-5.1l-3.8-4.5l-1.9-1.9l-6.4-10.2l-2.5-3.2L317.9,757l-4.5-10.8l-4.5-15.3l-2.5-14
	l-1.3-11.5l-0.6-12.1V611l0.6-83.5H300v-0.6h5.1l-0.6-82.2l-1.9-1.3l1.9-0.6l0.6-30l1.3-16.6l3.2-16.6l5.1-15.9l3.2-7.6l5.1-10.2
	l6.4-11.5l5.1-7.6l3.2-5.7l5.1-4.5l1.3-1.9h1.3l1.3-2.5l10.2-10.2l5.1-4.5l10.2-8.3l8.9-5.7l10.8-6.4l12.7-5.7l15.9-5.7l22.9-4.5
	l12.7-1.3L504.7,259.1z"/>
<path class="st1" d="M430.5,427.4h360.2l7.6,1.3l8.9,4.5l4.5,3.8l5.1,8.9l1.3,7v149.2l-0.6,8.3l-2.5,7l-4.5,6.4l-6.4,5.7l-7,3.2
	L792,632l-35.1-7.6l-34.4-6.4l-42.7-7.6l-35.1-5.1l-12.1-1.3h-33.1l-18.5,1.3l-26.8,3.8l-44.6,7.6l-44.6,8.3l-31.9,7h-7l-7.6-3.8
	l-4.5-3.8l-4.5-7l-1.9-5.1l-0.6-3.8l-0.6-10.8v-146l1.3-5.7l4.5-7.6l5.7-5.7l8.9-4.5L430.5,427.4z"/>
<path class="st0" d="M732.7,491.2l3.8,0.6l5.1,4.5l3.2,6.4l-0.6,5.7l-5.1,4.5l-8.3,3.8l-15.9,4.5h-1.3l0.6,1.3l19.1,4.5l6.4,3.2
	l4.5,5.7l0.6,4.5l-1.9,4.5l-3.8,4.5l-3.2,1.9h-4.5l-22.9-5.7l-40.8-10.8l-7.6-3.2l-3.2-2.5l-1.9-3.8v-7l2.5-3.8l4.5-3.2l11.5-3.8
	l37-9.6L732.7,491.2z"/>
<path class="st0" d="M463.7,491.2l4.5,0.6l37.6,10.2l25.5,7l7.6,3.2l3.2,3.2l1.9,3.2l0.6,5.1l-2.5,4.5l-6.4,4.5l-9.6,3.2l-50.4,13.4
	l-7.6,1.9H463l-5.7-3.8l-2.5-4.5v-7l3.2-5.1l7.6-3.8l12.1-3.2l6.4-1.3v-1.3l-9.6-2.5l-10.2-3.2l-5.1-2.5l-3.2-3.2l-1.9-4.5l1.3-6.4
	l3.2-4.5L463.7,491.2z"/>
<path class="st1" d="M1221.4,976.6h35.7l1.9,1.3l-0.6,19.1l-0.6,0.6H1222l-0.6-5.7V976.6z"/>
<g>
	<path class="st0" d="M96.4,1044c-3.4,0-6.1-2.7-6.1-6.1v-96.1c0-12.7,3.8-23,11.5-31.1c7.7-8,17.7-12,29.9-12
		c12,0,21.6,4.5,29.1,13.5c2.4,2.9,6.9,2.9,9.3,0c3.4-3.9,6.9-6.9,10.5-9c5.5-3.1,12.2-4.6,20.3-4.6c12.7,0,22.5,4,29.3,12
		c6.8,8,10.2,19.6,10.2,34.7v92.5c0,3.4-2.7,6.1-6.1,6.1h-29.9c-3.4,0-6.1-2.7-6.1-6.1v-86.1c0-4.6-0.4-7.6-1.1-9.1
		c-0.7-1.5-2.2-2.2-4.4-2.2c-4.2,0-6.2,3.5-6.2,10.6v86.8c0,3.4-2.7,6.1-6.1,6.1h-29.9c-3.4,0-6.1-2.7-6.1-6.1v-86.1
		c0-4.5-0.4-7.5-1.1-9c-0.8-1.5-2.3-2.3-4.5-2.3c-4.2,0-6.2,3.8-6.2,11.3v86.1c0,3.4-2.7,6.1-6.1,6.1H96.4z"/>
	<path class="st0" d="M367.2,898.7c20.1,0,37.3,7.3,51.7,21.9c14.4,14.6,21.6,32.1,21.6,52.5c0,20.7-7.2,38.3-21.7,52.8
		c-12.1,12.1-26.5,19.2-43,21.1c-26.1,3.1-52.3-7.6-68.7-28.3c-10.4-13.1-15.5-28.3-15.5-45.6c0-20.8,7.3-38.4,22-52.8
		C328.1,905.9,346,898.7,367.2,898.7z M366,940.4c-8.7,0-16,3.2-22.1,9.6c-6.1,6.4-9.1,14.1-9.1,23.1c0,9,3.1,16.7,9.2,23.1
		c6.1,6.4,13.5,9.6,22.1,9.6c8.7,0,16.1-3.2,22.2-9.5c6.1-6.3,9.1-14,9.1-23.1c0-9.1-3-16.8-9.1-23.1
		C382.1,943.6,374.7,940.4,366,940.4z"/>
	<path class="st0" d="M561.5,898.7c20.1,0,37.3,7.3,51.7,21.9c14.4,14.6,21.6,32.1,21.6,52.5c0,20.7-7.2,38.3-21.7,52.8
		c-12.1,12.1-26.5,19.2-43,21.1c-26.1,3.1-52.3-7.6-68.7-28.3c-10.4-13.1-15.5-28.3-15.5-45.6c0-20.8,7.3-38.4,22-52.8
		C522.4,905.9,540.3,898.7,561.5,898.7z M560.3,940.4c-8.7,0-16,3.2-22.1,9.6c-6.1,6.4-9.1,14.1-9.1,23.1c0,9,3.1,16.7,9.2,23.1
		c6.1,6.4,13.5,9.6,22.1,9.6c8.7,0,16.1-3.2,22.2-9.5c6.1-6.3,9.1-14,9.1-23.1c0-9.1-3-16.8-9.1-23.1
		C576.4,943.6,569,940.4,560.3,940.4z"/>
	<path class="st0" d="M755.8,898.7c20.1,0,37.3,7.3,51.7,21.9c14.4,14.6,21.6,32.1,21.6,52.5c0,20.7-7.2,38.3-21.7,52.8
		c-12.1,12.1-26.5,19.2-43,21.1c-26.1,3.1-52.3-7.6-68.7-28.3c-10.4-13.1-15.5-28.3-15.5-45.6c0-20.8,7.3-38.4,22-52.8
		C716.7,905.9,734.6,898.7,755.8,898.7z M754.6,940.4c-8.7,0-16,3.2-22.1,9.6c-6.1,6.4-9.1,14.1-9.1,23.1c0,9,3.1,16.7,9.2,23.1
		c6.1,6.4,13.5,9.6,22.1,9.6c8.7,0,16.1-3.2,22.2-9.5c6.1-6.3,9.1-14,9.1-23.1c0-9.1-3-16.8-9.1-23.1
		C770.7,943.6,763.3,940.4,754.6,940.4z"/>
	<path class="st0" d="M981.3,910.7l-52.6,127.7c-2.1,5.1-9.2,5-11.3,0l-52.3-127.7c-1.6-4,1.3-8.4,5.7-8.4h35.1
		c2.7,0,5.1,1.8,5.9,4.4l6.1,20.8c1.7,5.8,9.8,5.9,11.7,0.2l6.9-21.2c0.8-2.5,3.2-4.2,5.8-4.2h33.5C980,902.2,983,906.6,981.3,910.7
		z"/>
	<path class="st0" d="M1070.2,908.3v129.5c0,3.4-2.7,6.1-6.1,6.1h-29.9c-3.4,0-6.1-2.7-6.1-6.1V908.3c0-3.4,2.7-6.1,6.1-6.1h29.9
		C1067.5,902.2,1070.2,905,1070.2,908.3z"/>
	<path class="st0" d="M1208.3,963.5v19.3c0,3.4-2.7,6.1-6.1,6.1h-21.4c-3.7,0-6.4,0.6-7.9,1.7c-1.6,1.1-2.3,3-2.3,5.6
		c0,3,0.8,4.9,2.4,5.9c1.6,0.9,4.8,1.4,9.8,1.4h22.2c3.4,0,6.1,2.7,6.1,6.1v28.3c0,3.4-2.7,6.1-6.1,6.1h-27
		c-15.6,0-27.5-3.7-35.7-11.2c-8.2-7.4-12.4-18.2-12.4-32.3V945c0-13.6,3.9-24.1,11.7-31.6c7.8-7.5,18.7-11.2,32.9-11.2h30.5
		c3.4,0,6.1,2.7,6.1,6.1v28.5c0,3.4-2.7,6.1-6.1,6.1h-20.8c-7.3,0-10.9,2.4-10.9,7.1c0,2.8,0.9,4.7,2.6,5.8c1.7,1.1,4.8,1.6,9.2,1.6
		h17.1C1205.5,957.4,1208.3,960.1,1208.3,963.5z"/>
</g>
</svg>
